<svg width="992" height="172" viewBox="0 0 992 172" fill="none" xmlns="http://www.w3.org/2000/svg">
<path d="M45 170H7.07805e-07V2.5H62.5L79 51.25L93.75 109.25L108.5 51.25L125 2.5H187.5V170H142.5V126.5L149.75 44.25L128.75 109.25L118 140H69.5L58.75 109.25L37.75 44.25L45 126.5V170ZM242.402 170H197.402V2.5H242.402V66.25H302.402V2.5H347.402V170H302.402V106.25H242.402V170ZM384.494 170H336.494L395.744 2.5H458.494L517.744 170H468.494L458.244 138.75H394.744L384.494 170ZM415.244 76.75L407.244 101.25H445.744L437.744 76.75L426.494 34.75L415.244 76.75ZM552.002 170H507.002V2.5H587.252C626.252 2.5 654.252 18 654.252 55C654.252 87.25 632.502 101.5 604.002 104C621.252 108.25 628.752 119 637.252 132.25L661.252 170H610.002L582.252 125.25C575.502 114.25 569.252 110 555.502 110H552.002V170ZM587.752 42.5H552.002V74H587.752C600.502 74 606.752 68.5 606.752 58.25C606.752 47.75 600.502 42.5 587.752 42.5ZM735.635 172C684.635 172 649.385 134.25 649.385 86C649.385 37.75 684.635 -1.78814e-06 735.635 -1.78814e-06C786.635 -1.78814e-06 821.885 37.75 821.885 86C821.885 134.25 786.635 172 735.635 172ZM735.635 128.25C761.635 128.25 774.385 110.25 774.385 86C774.385 61.75 761.635 43.75 735.635 43.75C709.635 43.75 696.885 61.75 696.885 86C696.885 110.25 709.635 128.25 735.635 128.25ZM905.205 172C854.205 172 818.955 134.25 818.955 86C818.955 37.75 854.205 -1.78814e-06 905.205 -1.78814e-06C956.205 -1.78814e-06 991.455 37.75 991.455 86C991.455 134.25 956.205 172 905.205 172ZM905.205 128.25C931.205 128.25 943.955 110.25 943.955 86C943.955 61.75 931.205 43.75 905.205 43.75C879.205 43.75 866.455 61.75 866.455 86C866.455 110.25 879.205 128.25 905.205 128.25Z" fill="white"/>
</svg>
